<svg width="33" height="30" viewBox="0 0 33 30" fill="none" xmlns="http://www.w3.org/2000/svg">
<g filter="url(#filter0_d_2_476)">
<ellipse cx="16.5068" cy="11.1954" rx="12.4932" ry="10.8043" fill="#FFB400"/>
<g clip-path="url(#clip0_2_476)">
<path d="M21.3589 10.9706C21.3091 10.1439 20.9766 9.34859 20.4036 8.68547C20.229 8.84809 20.0424 9.00072 19.8449 9.1424C19.2382 9.57824 18.5601 9.93398 17.8329 10.1981C17.9343 10.3819 18.0272 10.5599 18.1092 10.728V10.7296C18.1323 10.7765 18.1546 10.8238 18.176 10.8714C19.0955 10.7821 20.0647 10.8147 21.0042 10.9244C21.1293 10.9391 21.2472 10.9549 21.3589 10.9706ZM15.6593 7.05785C16.2512 7.77905 16.797 8.52771 17.2942 9.30048C18.0369 9.04733 18.6509 8.72801 19.1453 8.37244C19.3169 8.25014 19.4784 8.11764 19.6287 7.97591C18.7548 7.34026 17.6491 6.99237 16.5071 6.99377C16.2229 6.99361 15.9393 7.01487 15.6593 7.05732V7.05785ZM11.8023 10.1434C12.2161 10.1344 12.6293 10.1129 13.0412 10.0788C14.037 10.0018 15.0243 9.85747 15.994 9.64712C15.4872 8.88568 14.94 8.14488 14.3542 7.42707C13.7285 7.69513 13.1768 8.07644 12.7365 8.54512C12.2962 9.01381 11.9776 9.55891 11.8023 10.1434ZM12.7315 13.8398C12.9672 13.5421 13.2769 13.207 13.688 12.8425C14.571 12.0599 15.6132 11.4507 16.8193 11.1145L16.8569 11.1051C16.7567 10.9139 16.6626 10.7432 16.5679 10.5825C15.4529 10.8635 14.2783 11.0389 13.108 11.1298C12.5372 11.1744 12.0252 11.1939 11.6487 11.197C11.6476 12.1595 12.0303 13.0929 12.7321 13.8398H12.7315ZM18.3321 15.0898C18.0979 14.0684 17.7664 13.0656 17.341 12.0914C16.1251 12.4733 15.1565 13.0316 14.4077 13.6975C14.1055 13.9614 13.8373 14.2528 13.6079 14.5667C14.4452 15.1071 15.4624 15.3984 16.5071 15.3971C17.1326 15.3979 17.7523 15.2939 18.3321 15.0909V15.0898ZM19.4696 14.5252C20.4177 13.8949 21.0637 12.9841 21.2836 11.9675C21.0771 11.9228 20.8154 11.8782 20.5275 11.8435C19.8875 11.7638 19.2381 11.758 18.5963 11.8262C18.9577 12.7079 19.2494 13.6099 19.4696 14.5258V14.5252ZM16.5071 16.4475C13.153 16.4475 10.4341 14.0962 10.4341 11.1954C10.4341 8.29471 13.153 5.94336 16.5071 5.94336C19.8613 5.94336 22.5802 8.29471 22.5802 11.1954C22.5802 14.0962 19.8613 16.4475 16.5071 16.4475Z" fill="#2B2B2B"/>
</g>
</g>
<defs>
<filter id="filter0_d_2_476" x="0.0136719" y="0.391113" width="32.9863" height="29.6084" filterUnits="userSpaceOnUse" color-interpolation-filters="sRGB">
<feFlood flood-opacity="0" result="BackgroundImageFix"/>
<feColorMatrix in="SourceAlpha" type="matrix" values="0 0 0 0 0 0 0 0 0 0 0 0 0 0 0 0 0 0 127 0" result="hardAlpha"/>
<feOffset dy="4"/>
<feGaussianBlur stdDeviation="2"/>
<feComposite in2="hardAlpha" operator="out"/>
<feColorMatrix type="matrix" values="0 0 0 0 0 0 0 0 0 0 0 0 0 0 0 0 0 0 0.25 0"/>
<feBlend mode="normal" in2="BackgroundImageFix" result="effect1_dropShadow_2_476"/>
<feBlend mode="normal" in="SourceGraphic" in2="effect1_dropShadow_2_476" result="shape"/>
</filter>
<clipPath id="clip0_2_476">
<rect width="14.5753" height="12.605" fill="white" transform="translate(9.21924 4.89307)"/>
</clipPath>
</defs>
</svg>
