<svg width="26" height="22" viewBox="0 0 26 22" fill="none" xmlns="http://www.w3.org/2000/svg">
<ellipse cx="13.0957" cy="11.1954" rx="12.4932" ry="10.8043" fill="#FFB400"/>
<g clip-path="url(#clip0_2_460)">
<path d="M13.096 5.94336C14.7461 5.94336 14.9519 5.94861 15.5993 5.97487C16.2461 6.00113 16.6864 6.08884 17.0739 6.21909C17.4747 6.3525 17.8123 6.53317 18.15 6.82466C18.4588 7.08721 18.6978 7.40479 18.8502 7.75532C19.0002 8.08988 19.1023 8.47118 19.1326 9.03053C19.1612 9.5904 19.1691 9.76844 19.1691 11.1954C19.1691 12.6224 19.163 12.8005 19.1326 13.3603C19.1023 13.9197 19.0002 14.3005 18.8502 14.6355C18.6982 14.9863 18.4592 15.3039 18.15 15.5662C17.8463 15.8332 17.4791 16.0398 17.0739 16.1718C16.687 16.3015 16.2461 16.3897 15.5993 16.416C14.9519 16.4407 14.7461 16.4475 13.096 16.4475C11.446 16.4475 11.2401 16.4423 10.5927 16.416C9.94591 16.3897 9.50562 16.3015 9.11815 16.1718C8.71267 16.0402 8.34537 15.8335 8.04201 15.5662C7.73314 15.3037 7.49418 14.9861 7.34178 14.6355C7.19117 14.301 7.08975 13.9197 7.05939 13.3603C7.03084 12.8005 7.02295 12.6224 7.02295 11.1954C7.02295 9.76844 7.02902 9.5904 7.05939 9.03053C7.08975 8.47066 7.19117 8.09041 7.34178 7.75532C7.49375 7.40458 7.73277 7.0869 8.04201 6.82466C8.34546 6.55745 8.71273 6.35078 9.11815 6.21909C9.50562 6.08884 9.94531 6.00113 10.5927 5.97487C11.2401 5.95019 11.446 5.94336 13.096 5.94336ZM13.096 8.5694C12.2907 8.5694 11.5183 8.84607 10.9489 9.33854C10.3794 9.83102 10.0595 10.499 10.0595 11.1954C10.0595 11.8919 10.3794 12.5598 10.9489 13.0523C11.5183 13.5448 12.2907 13.8215 13.096 13.8215C13.9013 13.8215 14.6737 13.5448 15.2432 13.0523C15.8126 12.5598 16.1325 11.8919 16.1325 11.1954C16.1325 10.499 15.8126 9.83102 15.2432 9.33854C14.6737 8.84607 13.9013 8.5694 13.096 8.5694ZM17.0435 8.43809C17.0435 8.26398 16.9635 8.09699 16.8212 7.97387C16.6788 7.85075 16.4857 7.78158 16.2844 7.78158C16.083 7.78158 15.8899 7.85075 15.7476 7.97387C15.6052 8.09699 15.5252 8.26398 15.5252 8.43809C15.5252 8.61221 15.6052 8.7792 15.7476 8.90232C15.8899 9.02543 16.083 9.0946 16.2844 9.0946C16.4857 9.0946 16.6788 9.02543 16.8212 8.90232C16.9635 8.7792 17.0435 8.61221 17.0435 8.43809ZM13.096 9.61981C13.5792 9.61981 14.0426 9.78581 14.3843 10.0813C14.726 10.3768 14.9179 10.7776 14.9179 11.1954C14.9179 11.6133 14.726 12.0141 14.3843 12.3096C14.0426 12.6051 13.5792 12.7711 13.096 12.7711C12.6128 12.7711 12.1494 12.6051 11.8077 12.3096C11.466 12.0141 11.2741 11.6133 11.2741 11.1954C11.2741 10.7776 11.466 10.3768 11.8077 10.0813C12.1494 9.78581 12.6128 9.61981 13.096 9.61981Z" fill="#2B2B2B"/>
</g>
<defs>
<clipPath id="clip0_2_460">
<rect width="14.5753" height="12.605" fill="white" transform="translate(5.80811 4.89307)"/>
</clipPath>
</defs>
</svg>
