<svg width="26" height="22" viewBox="0 0 26 22" fill="none" xmlns="http://www.w3.org/2000/svg">
<ellipse cx="13.3013" cy="11.1954" rx="12.4932" ry="10.8043" fill="#FFB400"/>
<g clip-path="url(#clip0_2_468)">
<path d="M10.2285 7.5192C10.2284 7.79779 10.1003 8.06491 9.87236 8.2618C9.64446 8.4587 9.33546 8.56923 9.01332 8.56909C8.69119 8.56895 8.38231 8.45815 8.15464 8.26106C7.92697 8.06397 7.79916 7.79674 7.79932 7.51815C7.79948 7.23956 7.9276 6.97244 8.1555 6.77555C8.3834 6.57866 8.6924 6.46812 9.01454 6.46826C9.33667 6.4684 9.64555 6.5792 9.87322 6.77629C10.1009 6.97338 10.2287 7.24061 10.2285 7.5192ZM10.265 9.34692H7.83575V15.9225H10.265V9.34692ZM14.1032 9.34692H11.6861V15.9225H14.0789V12.4719C14.0789 10.5496 16.9757 10.3711 16.9757 12.4719V15.9225H19.3746V11.7576C19.3746 8.51709 15.087 8.63789 14.0789 10.2293L14.1032 9.34692Z" fill="#2B2B2B"/>
</g>
<defs>
<clipPath id="clip0_2_468">
<rect width="14.5753" height="12.605" fill="white" transform="translate(6.01367 4.89307)"/>
</clipPath>
</defs>
</svg>
