<svg width="26" height="22" viewBox="0 0 26 22" fill="none" xmlns="http://www.w3.org/2000/svg">
<ellipse cx="12.6987" cy="11.1954" rx="12.4932" ry="10.8043" fill="#FFB400"/>
<g clip-path="url(#clip0_2_464)">
<path d="M18.8704 7.8634C18.4068 8.04076 17.9151 8.15724 17.4117 8.20898C17.9423 7.93453 18.3395 7.50259 18.5291 6.99365C18.0311 7.24996 17.4852 7.42958 16.9161 7.52674C16.5339 7.17305 16.0272 6.93849 15.4749 6.85951C14.9227 6.78053 14.3557 6.86156 13.8621 7.09C13.3686 7.31845 12.9761 7.68151 12.7458 8.12274C12.5155 8.56397 12.4602 9.05865 12.5884 9.52988C11.5786 9.48611 10.5906 9.25915 9.68873 8.86374C8.78686 8.46833 7.99122 7.91332 7.35347 7.23472C7.12772 7.57004 7.0091 7.95123 7.00973 8.33923C7.00973 9.10079 7.45792 9.77358 8.13932 10.1675C7.73607 10.1565 7.3417 10.0623 6.98908 9.8928V9.92011C6.9892 10.4273 7.19215 10.9189 7.5635 11.3114C7.93486 11.704 8.45177 11.9734 9.02659 12.074C8.65226 12.1617 8.25975 12.1746 7.87879 12.1118C8.04086 12.5484 8.35674 12.9302 8.78221 13.2038C9.20768 13.4773 9.72143 13.629 10.2515 13.6375C9.72468 13.9954 9.12144 14.2599 8.4763 14.416C7.83116 14.5721 7.15678 14.6166 6.4917 14.5472C7.65268 15.1929 9.00418 15.5357 10.3845 15.5346C15.0565 15.5346 17.6115 12.1874 17.6115 9.28461C17.6115 9.19007 17.6084 9.09448 17.6036 9.001C18.1009 8.69016 18.5301 8.30511 18.871 7.86392L18.8704 7.8634Z" fill="#2B2B2B"/>
</g>
<defs>
<clipPath id="clip0_2_464">
<rect width="14.5753" height="12.605" fill="white" transform="translate(5.41113 4.89307)"/>
</clipPath>
</defs>
</svg>
