<svg width="26" height="22" viewBox="0 0 26 22" fill="none" xmlns="http://www.w3.org/2000/svg">
<ellipse cx="12.9043" cy="11.1954" rx="12.4932" ry="10.8043" fill="#FFB400"/>
<g clip-path="url(#clip0_2_472)">
<path d="M18.6996 8.30562C18.9772 9.24154 18.9772 11.1953 18.9772 11.1953C18.9772 11.1953 18.9772 13.1491 18.6996 14.085C18.5454 14.6023 18.0941 15.0094 17.5227 15.147C16.4848 15.397 12.9041 15.397 12.9041 15.397C12.9041 15.397 9.32526 15.397 8.28555 15.147C7.71165 15.0073 7.26103 14.6008 7.10859 14.085C6.83105 13.1491 6.83105 11.1953 6.83105 11.1953C6.83105 11.1953 6.83105 9.24154 7.10859 8.30562C7.26285 7.78829 7.71408 7.38126 8.28555 7.24365C9.32526 6.99365 12.9041 6.99365 12.9041 6.99365C12.9041 6.99365 16.4848 6.99365 17.5227 7.24365C18.0966 7.38336 18.5472 7.78987 18.6996 8.30562ZM11.6895 13.0335L15.3333 11.1953L11.6895 9.35708V13.0335Z" fill="#2B2B2B"/>
</g>
<defs>
<clipPath id="clip0_2_472">
<rect width="14.5753" height="12.605" fill="white" transform="translate(5.61621 4.89307)"/>
</clipPath>
</defs>
</svg>
